<?xml version="1.0" encoding="utf-8"?>
<!-- Generator: Adobe Illustrator 16.0.0, SVG Export Plug-In . SVG Version: 6.00 Build 0)  -->
<!DOCTYPE svg PUBLIC "-//W3C//DTD SVG 1.1//EN" "http://www.w3.org/Graphics/SVG/1.1/DTD/svg11.dtd">
<svg version="1.1" id="Layer_1" xmlns="http://www.w3.org/2000/svg" xmlns:xlink="http://www.w3.org/1999/xlink" x="0px" y="0px"
	 width="362.964px" height="78.334px" viewBox="0 0 362.964 78.334" enable-background="new 0 0 362.964 78.334"
	 xml:space="preserve">
<g>
	<path fill="#333F48" d="M59.786,46.697l-4.14,0.09l-0.15-1.05l2.7-0.39V27.167l-2.7-0.39l0.15-1.05l4.14,0.09l5.91-0.09
		c3.93-0.03,5.79,2.25,5.79,4.53c0,2.37-1.98,4.47-4.74,5.19c3.93,0.18,6,2.46,6,5.16c0,4.05-3.36,5.49-8.1,6.18L59.786,46.697z
		 M61.346,27.167v7.89h2.49c2.64,0,4.41-2.04,4.41-4.5c0-2.1-1.29-3.48-3.75-3.54L61.346,27.167z M64.046,45.497
		c4.11,0,5.4-2.61,5.4-4.77c0-2.49-1.74-4.32-4.74-4.32h-3.36v8.939L64.046,45.497z"/>
	<path fill="#333F48" d="M78.596,46.697l-3.45,0.09l-0.15-1.05l2.1-0.3v-10.95l-2.1,0.18l-0.15-1.05l3.6-0.93l1.5-0.12v12.87
		l2.25,0.3l-0.15,1.05L78.596,46.697z M77.096,26.058l2.16-0.15l0.84,0.15l0.15,1.68l-0.33,1.44l-2.13,0.18l-0.81-0.18l-0.18-1.68
		L77.096,26.058z"/>
	<path fill="#333F48" d="M97.465,39.407c0,4.47-2.729,7.05-7.379,7.8c-3.99,0-6.69-3.09-6.69-7.17c0-4.5,2.73-7.05,7.38-7.83
		C94.765,32.208,97.465,35.327,97.465,39.407z M90.835,45.737c2.4,0,3.63-2.46,3.63-5.7c0-3.81-1.83-6.36-4.44-6.36
		c-2.43,0-3.63,2.46-3.63,5.73C86.396,42.827,88.166,45.737,90.835,45.737z"/>
	<path fill="#333F48" d="M119.814,46.697l-2.85,0.09l-0.15-1.05l1.5-0.3v-8.58c0-1.56-0.66-2.25-1.74-2.25
		c-0.9,0-2.01,0.6-3.06,1.35l-0.9,0.63v8.85l1.35,0.3l-0.15,1.05l-2.55-0.09l-2.7,0.09l-0.15-1.05l1.35-0.3v-8.58
		c0-1.56-0.66-2.25-1.74-2.25c-0.9,0-2.01,0.6-3.06,1.35l-0.9,0.63v8.85l1.5,0.3l-0.15,1.05l-2.7-0.09l-3.45,0.09l-0.15-1.05
		l2.1-0.3v-10.95l-2.1,0.18l-0.15-1.05l3.6-0.93l1.29-0.09l0.15,2.49l4.14-2.88c2.91,0,3.99,0.87,4.32,2.94l4.23-2.94
		c3.84,0,4.47,1.44,4.47,5.25v7.98l2.25,0.3l-0.15,1.05L119.814,46.697z"/>
	<path fill="#333F48" d="M127.315,39.107c0,3.42,1.83,5.85,4.98,5.85c1.2,0,2.64-0.57,3.75-1.26l0.48,1.14
		c-1.44,0.99-3.33,1.83-5.25,2.37c-3.63,0-6.9-2.58-6.9-7.29c0-4.439,2.67-6.81,6.78-7.709c3.96,0,5.31,2.49,5.31,5.64v1.26H127.315
		z M133.345,37.607c0-2.31-0.45-3.9-2.76-3.9c-1.83,0-3,1.71-3.24,4.2L133.345,37.607z"/>
	<path fill="#333F48" d="M151.225,42.857c0,1.2,0.21,1.74,0.51,2.19h1.68l0.12,1.11l-4.02,0.75l-0.93-2.31l-3.87,2.61
		c-3.81,0-6.24-2.85-6.24-6.99c0-4.86,2.97-7.41,7.35-8.01c0.6,0,1.86,0.48,2.55,0.81v-5.67l-2.1,0.06l-0.15-1.02l3.6-0.93l1.5-0.12
		V42.857z M147.475,43.577l0.9-0.72v-7.95c-0.66-0.75-1.71-1.2-2.97-1.2c-2.4,0-3.93,2.19-3.93,5.729c0,3.33,1.32,5.37,3.12,5.37
		C145.405,44.807,146.425,44.417,147.475,43.577z"/>
	<path fill="#333F48" d="M158.785,46.697l-3.45,0.09l-0.15-1.05l2.1-0.3v-10.95l-2.1,0.18l-0.15-1.05l3.6-0.93l1.5-0.12v12.87
		l2.25,0.3l-0.15,1.05L158.785,46.697z M157.285,26.058l2.16-0.15l0.84,0.15l0.15,1.68l-0.33,1.44l-2.13,0.18l-0.81-0.18l-0.18-1.68
		L157.285,26.058z"/>
	<path fill="#333F48" d="M172.105,34.277c-0.48-0.36-0.93-0.48-1.74-0.48c-2.04,0-3.6,2.28-3.6,5.55c0,3.21,1.74,5.61,4.68,5.61
		c1.14,0,2.34-0.57,3.39-1.26l0.48,1.14c-1.38,0.99-2.91,1.74-4.89,2.37c-3.84,0-6.69-2.52-6.69-7.14c0-4.709,3.45-6.959,7.14-7.859
		c1.38,0,3.24,0.69,4.14,1.5v3h-2.22L172.105,34.277z"/>
	<path fill="#333F48" d="M182.875,32.208c3.78,0,4.74,0.96,4.74,4.77v5.88c0,1.29,0.21,1.77,0.51,2.25h1.5l0.12,1.05l-3.87,0.75
		l-0.93-2.31l-3.57,2.61c-2.58,0-4.41-1.44-4.41-3.84c0-1.08,0.39-1.86,1.05-2.76l6.75-2.25v-1.5c0-1.8-0.15-2.88-1.77-2.88
		c-0.81,0-1.8,0.27-2.46,0.54l-0.51,2.37h-2.58v-2.28L182.875,32.208z M184.765,39.557l-4.35,1.8c-0.45,0.45-0.6,1.05-0.6,1.68
		c0,1.53,0.87,2.07,1.74,2.07c0.84,0,1.56-0.51,1.95-0.78l1.26-0.87V39.557z"/>
	<path fill="#333F48" d="M194.545,46.697l-3.45,0.09l-0.15-1.05l2.1-0.3v-18.06l-2.1,0.06l-0.15-1.05l3.6-0.93l1.5-0.12v20.099
		l2.25,0.3l-0.15,1.05L194.545,46.697z"/>
	<path fill="#333F48" d="M222.894,25.728l0.3,5.4h-1.02l-1.68-3.9l-7.95-0.09v7.979l4.2-0.12l1.2-3.149h1.05l-0.3,3.75l0.3,4.05
		h-1.05l-1.2-3.15l-4.2-0.12v9l8.25-0.09l2.01-4.05h1.14l-1.05,5.549l-11.909-0.09l-4.14,0.09l-0.15-1.05l2.7-0.39V27.167l-2.7-0.39
		l0.15-1.05l4.14,0.09L222.894,25.728z"/>
	<path fill="#333F48" d="M228.895,46.697l-3.45,0.09l-0.15-1.05l2.1-0.3v-10.95l-2.1,0.18l-0.15-1.05l3.6-0.93l1.29-0.09l0.15,2.52
		l4.439-2.91c3.84,0,4.47,1.29,4.47,4.89v8.34l2.28,0.3l-0.15,1.05l-3.45-0.09l-2.88,0.09l-0.15-1.05l1.5-0.3v-8.58
		c0-1.56-0.69-2.25-1.98-2.25c-1.05,0-2.1,0.66-3.12,1.35l-0.9,0.6v8.88l1.65,0.3l-0.15,1.05L228.895,46.697z"/>
	<path fill="#333F48" d="M253.044,34.037l1.62-1.83h1.8v2.43h-1.8l-0.99,0.48c0.18,0.45,0.3,0.93,0.3,1.44
		c0,2.55-1.77,4.35-5.85,5.4c-0.42,0-0.81,0-1.17-0.06l-1.62,1.86c0,0.63,0.45,1.05,1.17,1.05h5.49c2.73,0,3.93,1.26,3.93,3.09
		c0,2.459-3.12,4.86-7.65,6.209c-4.35,0-6.54-1.35-6.54-4.14v-0.51l3.27-2.52c-2.1-0.78-2.25-1.74-2.25-3.12v-0.18l3-2.07
		c-1.89-0.66-3.12-2.1-3.12-3.959c0-2.55,1.74-4.35,5.85-5.4C250.435,32.208,252.084,32.897,253.044,34.037z M246.084,47.207
		c-1.53,1.68-1.65,2.22-1.65,2.64c0,1.41,1.62,2.49,4.08,2.49s4.56-1.59,4.56-3.6c0-1.08-0.81-1.53-2.85-1.53H246.084z
		 M248.035,33.587c-1.62,0-2.55,1.26-2.55,3.18c0,1.44,0.63,3.78,3.09,3.78c1.62,0,2.55-1.11,2.55-2.85
		C251.125,36.137,250.494,33.587,248.035,33.587z"/>
	<path fill="#333F48" d="M261.265,46.697l-3.45,0.09l-0.15-1.05l2.1-0.3v-10.95l-2.1,0.18l-0.15-1.05l3.6-0.93l1.5-0.12v12.87
		l2.25,0.3l-0.15,1.05L261.265,46.697z M259.765,26.058l2.16-0.15l0.84,0.15l0.15,1.68l-0.33,1.44l-2.13,0.18l-0.81-0.18l-0.18-1.68
		L259.765,26.058z"/>
	<path fill="#333F48" d="M270.115,46.697l-3.45,0.09l-0.15-1.05l2.1-0.3v-10.95l-2.1,0.18l-0.15-1.05l3.6-0.93l1.29-0.09l0.15,2.52
		l4.439-2.91c3.84,0,4.47,1.29,4.47,4.89v8.34l2.28,0.3l-0.15,1.05l-3.45-0.09l-2.88,0.09l-0.15-1.05l1.5-0.3v-8.58
		c0-1.56-0.69-2.25-1.98-2.25c-1.05,0-2.1,0.66-3.12,1.35l-0.9,0.6v8.88l1.65,0.3l-0.15,1.05L270.115,46.697z"/>
	<path fill="#333F48" d="M286.495,39.107c0,3.42,1.83,5.85,4.98,5.85c1.2,0,2.64-0.57,3.75-1.26l0.48,1.14
		c-1.44,0.99-3.33,1.83-5.25,2.37c-3.63,0-6.9-2.58-6.9-7.29c0-4.439,2.67-6.81,6.78-7.709c3.96,0,5.31,2.49,5.31,5.64v1.26H286.495
		z M292.525,37.607c0-2.31-0.45-3.9-2.76-3.9c-1.83,0-3,1.71-3.24,4.2L292.525,37.607z"/>
	<path fill="#333F48" d="M300.595,39.107c0,3.42,1.83,5.85,4.98,5.85c1.2,0,2.64-0.57,3.75-1.26l0.479,1.14
		c-1.439,0.99-3.33,1.83-5.25,2.37c-3.63,0-6.9-2.58-6.9-7.29c0-4.439,2.67-6.81,6.78-7.709c3.96,0,5.31,2.49,5.31,5.64v1.26
		H300.595z M306.625,37.607c0-2.31-0.45-3.9-2.76-3.9c-1.83,0-3,1.71-3.24,4.2L306.625,37.607z"/>
	<path fill="#333F48" d="M316.165,36.557l3.42-4.2h2.4v3h-2.22c-0.72,0.15-2.04,1.14-2.85,2.13l-0.6,0.72v7.14l3.15,0.3l-0.15,1.14
		l-4.35-0.09l-3.36,0.09l-0.15-1.05l2.1-0.3v-10.95l-2.1,0.18l-0.15-1.05l3.6-0.93l1.2-0.09L316.165,36.557z"/>
	<path fill="#333F48" d="M327.084,46.697l-3.45,0.09l-0.15-1.05l2.1-0.3v-10.95l-2.1,0.18l-0.15-1.05l3.6-0.93l1.5-0.12v12.87
		l2.25,0.3l-0.15,1.05L327.084,46.697z M325.584,26.058l2.16-0.15l0.84,0.15l0.15,1.68l-0.33,1.44l-2.13,0.18l-0.81-0.18l-0.18-1.68
		L325.584,26.058z"/>
	<path fill="#333F48" d="M335.935,46.697l-3.45,0.09l-0.15-1.05l2.1-0.3v-10.95l-2.1,0.18l-0.15-1.05l3.6-0.93l1.29-0.09l0.15,2.52
		l4.439-2.91c3.84,0,4.47,1.29,4.47,4.89v8.34l2.28,0.3l-0.15,1.05l-3.45-0.09l-2.88,0.09l-0.15-1.05l1.5-0.3v-8.58
		c0-1.56-0.69-2.25-1.98-2.25c-1.05,0-2.1,0.66-3.12,1.35l-0.9,0.6v8.88l1.65,0.3l-0.15,1.05L335.935,46.697z"/>
	<path fill="#333F48" d="M360.084,34.037l1.62-1.83h1.8v2.43h-1.8l-0.99,0.48c0.181,0.45,0.301,0.93,0.301,1.44
		c0,2.55-1.771,4.35-5.851,5.4c-0.42,0-0.81,0-1.17-0.06l-1.619,1.86c0,0.63,0.449,1.05,1.17,1.05h5.489c2.73,0,3.93,1.26,3.93,3.09
		c0,2.459-3.119,4.86-7.649,6.209c-4.35,0-6.54-1.35-6.54-4.14v-0.51l3.271-2.52c-2.101-0.78-2.25-1.74-2.25-3.12v-0.18l3-2.07
		c-1.891-0.66-3.12-2.1-3.12-3.959c0-2.55,1.74-4.35,5.85-5.4C357.475,32.208,359.124,32.897,360.084,34.037z M353.125,47.207
		c-1.53,1.68-1.65,2.22-1.65,2.64c0,1.41,1.62,2.49,4.08,2.49s4.56-1.59,4.56-3.6c0-1.08-0.81-1.53-2.85-1.53H353.125z
		 M355.074,33.587c-1.619,0-2.55,1.26-2.55,3.18c0,1.44,0.63,3.78,3.09,3.78c1.62,0,2.55-1.11,2.55-2.85
		C358.164,36.137,357.534,33.587,355.074,33.587z"/>
	<path fill="#333F48" d="M61.198,71.117c-3.441,0-5.602-2.36-5.602-6.161c0-3.061,1.3-6.602,5.602-8.042l1.68-0.56
		c1.98,0,3.501,0.86,4.241,1.52l-0.1,2.881h-1.061l-0.42-1.94c-0.58-0.58-1.7-1.081-3.621-1.38c-2.721,1.18-4.121,3.741-4.121,7.122
		c0,3.601,1.96,5.381,4.261,5.521c1-0.38,1.561-0.7,2.201-1.26l1.18-2.38h1.1l-0.78,3.36L61.198,71.117z"/>
	<path fill="#333F48" d="M76.058,65.036c0,2.44-1.4,4.661-3.861,5.561l-1.22,0.46c-1.721,0-3.261-1.4-3.261-3.981
		c0-2.44,1.4-4.661,3.861-5.562l1.22-0.46C74.518,61.055,76.058,62.456,76.058,65.036z M69.617,66.796
		c0,2.241,1.02,3.101,2.14,3.301c1.821-0.6,2.401-3.101,2.401-4.781c0-2.241-1.061-3.101-2.181-3.301
		C70.157,62.616,69.617,65.116,69.617,66.796z"/>
	<path fill="#333F48" d="M83.458,68.317l0.38,0.48c-0.6,0.48-1.64,1.18-2.581,1.76l-0.8,0.5c-1.781,0-3.301-1.36-3.301-3.881
		c0-2.481,1.46-4.641,4.081-5.682l1.101-0.44c0.52,0,1.58,0.38,2.16,0.72l-0.96,1.62c-0.7-0.5-1.601-0.96-2.241-1.24
		c-1.42,0.76-2.24,2.361-2.24,4.441c0,1.94,1,2.76,2.081,2.96C81.778,69.297,82.958,68.657,83.458,68.317z"/>
	<path fill="#333F48" d="M85.437,58.135l-0.22-0.6l3.521-1.101l0.48,0.46l-1.44,8.242l0.38-0.1l3.621-3.781h1.92l-0.4,1.86h-1.22
		c-0.68,0.18-1.2,0.46-1.88,1.02l-1.4,1.161l0.54,0.2l2.181,4.101l1.72-1.081l0.34,0.5l-2.84,2.041l-0.78-0.48l-2.28-4.941
		l-0.88,5.121h-1.7l2.3-13.163L85.437,58.135z"/>
	<path fill="#333F48" d="M98.037,63.236l-0.64,2.16l2.681-4.141h1.601l-0.42,1.84h-0.88c-0.54,0.32-1.34,1.06-1.92,1.8l-0.78,1
		l-0.88,4.861h-1.7l1.48-8.322l-1.86,0.66l-0.22-0.56l3.281-1.48l0.52,0.54L98.037,63.236z"/>
	<path fill="#333F48" d="M107.798,68.297l0.36,0.5c-0.5,0.42-1.64,1.24-2.601,1.8l-0.78,0.46c-1.96,0-3.301-1.5-3.301-3.681
		c0-2.521,1.44-4.941,4.001-5.901l1.12-0.42c1.26,0.22,2.2,0.74,2.2,2.101c0,0.46-0.12,1.02-0.36,1.72l-5.041,1.601
		c-0.02,0.18-0.02,0.36-0.02,0.52c0,1.78,1.12,2.561,2.061,2.581C106.137,69.277,107.118,68.757,107.798,68.297z M103.477,65.776
		l3.261-1.34c0.14-0.44,0.2-0.74,0.2-1.08c0-0.9-0.48-1.241-1.08-1.34C104.417,62.616,103.737,64.196,103.477,65.776z"/>
	<path fill="#333F48" d="M110.017,58.175l-0.24-0.62l3.521-1.101l0.48,0.46l-2.221,12.643l1.661-1.041l0.34,0.5l-2.84,2.041
		l-1.021-0.64l2.261-12.783L110.017,58.175z"/>
	<path fill="#333F48" d="M115.296,58.175l-0.24-0.62l3.521-1.101l0.48,0.46l-2.221,12.643l1.661-1.041l0.34,0.5l-2.84,2.041
		l-1.021-0.64l2.261-12.783L115.296,58.175z"/>
	<path fill="#333F48" d="M134.118,60.255h-1.08l-0.1-1.84c-0.54-0.48-1.58-1.06-2.641-1.06c-1.46,0.46-2.1,1.2-2.1,2.2
		c0,1.181,0.74,1.841,1.58,2.481l1.82,1.4c0.92,0.7,1.86,1.641,1.86,3.441c0,1.621-1.06,2.901-2.8,3.521l-2.041,0.72
		c-1.86,0-3.361-0.58-4.261-1.26l0.48-2.8h1.28v1.66c0.54,0.64,1.9,1.46,3.081,1.46c1.5-0.4,2.161-1.38,2.161-2.601
		c0-1.38-0.64-1.98-1.561-2.681l-2.041-1.58c-0.96-0.74-1.64-1.601-1.64-2.961c0-1.48,1.02-2.581,2.98-3.301l1.82-0.66
		c1.8,0,3.001,0.5,3.681,1.041L134.118,60.255z"/>
	<path fill="#333F48" d="M140.997,68.317l0.38,0.48c-0.6,0.48-1.64,1.18-2.581,1.76l-0.8,0.5c-1.781,0-3.301-1.36-3.301-3.881
		c0-2.481,1.46-4.641,4.081-5.682l1.101-0.44c0.52,0,1.58,0.38,2.16,0.72l-0.96,1.62c-0.7-0.5-1.601-0.96-2.241-1.24
		c-1.42,0.76-2.24,2.361-2.24,4.441c0,1.94,1,2.76,2.081,2.96C139.317,69.297,140.497,68.657,140.997,68.317z"/>
	<path fill="#333F48" d="M144.436,70.757h-1.7l2.32-13.123l-1.94,0.54l-0.24-0.62l3.521-1.101l0.48,0.46l-1,5.721l-0.3,0.62
		l3.421-2.201c1.6,0,2.14,1.08,1.94,2.241l-1.12,6.261l1.66-1.041l0.34,0.5l-2.84,2.041l-1.021-0.64l1.141-6.421
		c0.14-0.76,0.06-1.34-0.64-1.34c-0.58,0-1.36,0.42-1.88,0.78l-0.96,0.66L144.436,70.757z"/>
	<path fill="#333F48" d="M160.657,65.036c0,2.44-1.4,4.661-3.861,5.561l-1.22,0.46c-1.721,0-3.261-1.4-3.261-3.981
		c0-2.44,1.4-4.661,3.861-5.562l1.22-0.46C159.116,61.055,160.657,62.456,160.657,65.036z M154.215,66.796
		c0,2.241,1.02,3.101,2.14,3.301c1.821-0.6,2.401-3.101,2.401-4.781c0-2.241-1.061-3.101-2.181-3.301
		C154.755,62.616,154.215,65.116,154.215,66.796z"/>
	<path fill="#333F48" d="M170.097,65.036c0,2.44-1.4,4.661-3.861,5.561l-1.22,0.46c-1.721,0-3.261-1.4-3.261-3.981
		c0-2.44,1.4-4.661,3.861-5.562l1.22-0.46C168.557,61.055,170.097,62.456,170.097,65.036z M163.656,66.796
		c0,2.241,1.02,3.101,2.14,3.301c1.821-0.6,2.401-3.101,2.401-4.781c0-2.241-1.061-3.101-2.181-3.301
		C164.196,62.616,163.656,65.116,163.656,66.796z"/>
	<path fill="#333F48" d="M171.315,58.175l-0.24-0.62l3.521-1.101l0.48,0.46l-2.221,12.643l1.661-1.041l0.34,0.5l-2.84,2.041
		l-1.021-0.64l2.261-12.783L171.315,58.175z"/>
	<path fill="#333F48" d="M189.217,65.036c0,2.44-1.4,4.661-3.861,5.561l-1.22,0.46c-1.721,0-3.261-1.4-3.261-3.981
		c0-2.44,1.4-4.661,3.861-5.562l1.22-0.46C187.676,61.055,189.217,62.456,189.217,65.036z M182.775,66.796
		c0,2.241,1.02,3.101,2.14,3.301c1.821-0.6,2.401-3.101,2.401-4.781c0-2.241-1.061-3.101-2.181-3.301
		C183.315,62.616,182.775,65.116,182.775,66.796z"/>
	<path fill="#333F48" d="M189.575,73.818c0.44-0.48,0.74-1.18,0.82-1.66l1.68-9.602h-1.94l0.1-0.36l0.74-0.66h1.28l0.18-1.08
		c0.18-1.06,0.561-1.92,1.3-2.4l2.541-1.601h1.641l-0.32,1.581h-2.48c-0.46,0.44-0.78,1.2-0.86,1.72l-0.32,1.84h2.261l-0.22,0.96
		h-2.221l-1.54,8.902c-0.18,1-0.6,1.94-1.32,2.4l-2.48,1.601h-1.4l0.34-1.641H189.575z"/>
	<path fill="#333F48" d="M213.518,56.734v3.421h-0.68l-0.88-2.421l-4.981-0.06l-0.84,5.321l2.8-0.08l1.22-2.1h0.6l-0.7,2.62
		l-0.18,2.581h-0.6l-0.48-2.1l-2.8-0.08l-0.96,6.001l5.421-0.06l1.54-2.701h0.76l-0.86,3.701l-7.942-0.06l-2.741,0.06v-0.7
		l1.82-0.26l1.94-12.143l-1.76-0.26l0.2-0.68l2.761,0.06L213.518,56.734z"/>
	<path fill="#333F48" d="M220.876,63.996c0.14-0.76,0.06-1.34-0.64-1.34c-0.58,0-1.36,0.42-1.88,0.78l-0.96,0.66l-1.18,6.662h-1.7
		l1.48-8.322l-1.86,0.66l-0.22-0.56l3.281-1.48l0.62,0.64l-0.18,0.96l-0.28,0.6l3.42-2.201c1.601,0,2.141,1.08,1.94,2.241
		l-1.12,6.261l1.66-1.041l0.34,0.5l-2.841,2.041l-1.02-0.64L220.876,63.996z"/>
	<path fill="#333F48" d="M223.595,75.458l0.28-1.641h3.681c0.62-0.42,1.28-1.44,1.46-2.581l0.32-2l0.34-0.86l-2.841,2.681
		c-1.38-0.26-2.7-1.181-2.7-3.801c0-2.38,1.08-4.521,3.48-5.601l1.34-0.6c0.78,0,2.32,0.36,3.401,0.94l-1.741,9.682
		c-0.16,0.86-0.98,1.56-2.2,2.48l-1.74,1.3H223.595z M227.336,69.557l2.28-1.84l0.88-4.801c-0.521-0.4-1.661-0.7-2.521-0.7
		c-1.241,0.88-1.94,2.821-1.94,4.661C226.036,68.437,226.656,69.237,227.336,69.557z"/>
	<path fill="#333F48" d="M233.675,63.096l-0.22-0.56l3.281-1.48l0.62,0.64l-1.38,7.862l1.66-1.041l0.34,0.5l-2.841,2.041l-1.02-0.64
		l1.42-7.982L233.675,63.096z M236.495,56.994l0.58-0.1l1.12,0.1v0.96l-0.34,0.86l-0.54,0.1l-1.26-0.1l0.08-1L236.495,56.994z"/>
	<path fill="#333F48" d="M245.856,63.996c0.14-0.76,0.06-1.34-0.64-1.34c-0.58,0-1.36,0.42-1.88,0.78l-0.96,0.66l-1.18,6.662h-1.7
		l1.48-8.322l-1.86,0.66l-0.22-0.56l3.281-1.48l0.62,0.64l-0.18,0.96l-0.28,0.6l3.42-2.201c1.601,0,2.141,1.08,1.94,2.241
		l-1.12,6.261l1.66-1.041l0.34,0.5l-2.841,2.041l-1.02-0.64L245.856,63.996z"/>
	<path fill="#333F48" d="M255.296,68.297l0.36,0.5c-0.5,0.42-1.64,1.24-2.601,1.8l-0.78,0.46c-1.96,0-3.301-1.5-3.301-3.681
		c0-2.521,1.44-4.941,4-5.901l1.121-0.42c1.26,0.22,2.2,0.74,2.2,2.101c0,0.46-0.12,1.02-0.36,1.72l-5.041,1.601
		c-0.02,0.18-0.02,0.36-0.02,0.52c0,1.78,1.12,2.561,2.061,2.581C253.636,69.277,254.616,68.757,255.296,68.297z M250.976,65.776
		l3.261-1.34c0.14-0.44,0.2-0.74,0.2-1.08c0-0.9-0.48-1.241-1.08-1.34C251.916,62.616,251.235,64.196,250.976,65.776z"/>
	<path fill="#333F48" d="M263.716,68.297l0.36,0.5c-0.5,0.42-1.64,1.24-2.601,1.8l-0.78,0.46c-1.96,0-3.301-1.5-3.301-3.681
		c0-2.521,1.44-4.941,4-5.901l1.121-0.42c1.26,0.22,2.2,0.74,2.2,2.101c0,0.46-0.12,1.02-0.36,1.72l-5.041,1.601
		c-0.02,0.18-0.02,0.36-0.02,0.52c0,1.78,1.12,2.561,2.061,2.581C262.056,69.277,263.036,68.757,263.716,68.297z M259.396,65.776
		l3.261-1.34c0.14-0.44,0.2-0.74,0.2-1.08c0-0.9-0.48-1.241-1.08-1.34C260.335,62.616,259.655,64.196,259.396,65.776z"/>
	<path fill="#333F48" d="M269.156,63.236l-0.64,2.16l2.681-4.141h1.601l-0.42,1.84h-0.88c-0.54,0.32-1.34,1.06-1.92,1.8l-0.78,1
		l-0.88,4.861h-1.7l1.48-8.322l-1.86,0.66l-0.22-0.56l3.281-1.48l0.52,0.54L269.156,63.236z"/>
	<path fill="#333F48" d="M273.615,63.096l-0.22-0.56l3.281-1.48l0.62,0.64l-1.38,7.862l1.66-1.041l0.34,0.5l-2.841,2.041l-1.02-0.64
		l1.42-7.982L273.615,63.096z M276.435,56.994l0.58-0.1l1.121,0.1v0.96l-0.34,0.86l-0.54,0.1l-1.26-0.1l0.08-1L276.435,56.994z"/>
	<path fill="#333F48" d="M285.795,63.996c0.14-0.76,0.06-1.34-0.64-1.34c-0.58,0-1.36,0.42-1.88,0.78l-0.96,0.66l-1.18,6.662h-1.7
		l1.48-8.322l-1.86,0.66l-0.22-0.56l3.281-1.48l0.62,0.64l-0.18,0.96l-0.28,0.6l3.42-2.201c1.601,0,2.141,1.08,1.94,2.241
		l-1.12,6.261l1.66-1.041l0.34,0.5l-2.841,2.041l-1.02-0.64L285.795,63.996z"/>
	<path fill="#333F48" d="M289.114,75.458l0.28-1.641h3.681c0.62-0.42,1.28-1.44,1.46-2.581l0.32-2l0.34-0.86l-2.841,2.681
		c-1.38-0.26-2.7-1.181-2.7-3.801c0-2.38,1.08-4.521,3.48-5.601l1.34-0.6c0.78,0,2.32,0.36,3.401,0.94l-1.741,9.682
		c-0.16,0.86-0.98,1.56-2.2,2.48l-1.74,1.3H289.114z M292.855,69.557l2.28-1.84l0.88-4.801c-0.521-0.4-1.661-0.7-2.521-0.7
		c-1.241,0.88-1.94,2.821-1.94,4.661C291.555,68.437,292.175,69.237,292.855,69.557z"/>
</g>
<g>
	<g>
		<polygon fill="#BF5700" points="20.926,18.037 20.972,18.037 20.972,18.021 20.926,18.021 20.926,18.037 		"/>
		<path fill="#BF5700" d="M26.375,13.495c-1.139-0.175-2.215-0.341-3.189-0.341c-0.521,0-0.978,0.051-1.386,0.149l-0.228-6.358
			V5.891c0.449-0.188,0.994-0.275,1.686-0.275c0.889,0,1.904,0.148,2.979,0.307c0.946,0.139,1.919,0.276,2.917,0.34l0.271,7.601
			C28.402,13.806,27.375,13.65,26.375,13.495L26.375,13.495z M15.523,13.495c-1.001,0.155-2.029,0.311-3.053,0.367l0.273-7.601
			c0.998-0.063,1.97-0.201,2.916-0.34c1.075-0.158,2.092-0.307,2.98-0.307c0.691,0,1.236,0.088,1.685,0.275v1.055l-0.228,6.358
			c-0.408-0.099-0.863-0.149-1.387-0.149C17.738,13.154,16.662,13.32,15.523,13.495L15.523,13.495z M31.676,9.01V7.564h-0.891V5.097
			h-0.604c-1.274,0-2.542-0.187-3.77-0.366c-1.119-0.164-2.178-0.32-3.154-0.32c-0.919,0-1.678,0.145-2.309,0.441
			c-0.631-0.297-1.391-0.441-2.309-0.441c-0.977,0-2.035,0.156-3.155,0.32c-1.227,0.18-2.495,0.366-3.771,0.366h-0.602v2.468h-0.892
			V9.01h0.892v1.957h-0.881v1.445h0.881v2.68h0.602c1.363,0,2.699-0.207,3.992-0.406c1.092-0.168,2.123-0.328,3.004-0.328
			c0.711,0,1.244,0.104,1.657,0.318v0.001h1.161v-0.001c0.413-0.215,0.947-0.318,1.656-0.318c0.883,0,1.914,0.16,3.006,0.328
			c1.292,0.199,2.63,0.406,3.99,0.406h0.604v-2.68h0.881v-1.445h-0.881V9.01H31.676L31.676,9.01z"/>
		<path fill="#BF5700" d="M15.688,7.014c-0.06,0.009-0.118,0.018-0.178,0.026c-0.566,0.083-1.142,0.167-1.723,0.233l-0.033,0.975
			c0.643-0.07,1.273-0.163,1.896-0.255c0.013-0.003,0.025-0.004,0.038-0.007V7.014L15.688,7.014z"/>
		<path fill="#BF5700" d="M16.41,6.911v0.973c1.025-0.143,1.965-0.245,2.781-0.178l0.033-0.96
			C18.355,6.681,17.402,6.776,16.41,6.911L16.41,6.911z"/>
		<path fill="#BF5700" d="M15.688,11.423c-0.06,0.009-0.118,0.018-0.178,0.026c-0.618,0.091-1.246,0.183-1.881,0.252l-0.035,0.973
			c0.697-0.073,1.383-0.173,2.056-0.271c0.013-0.002,0.025-0.004,0.038-0.006V11.423L15.688,11.423z"/>
		<path fill="#BF5700" d="M16.41,11.32v0.973c0.959-0.133,1.846-0.231,2.623-0.188l0.033-0.959
			C18.24,11.103,17.343,11.193,16.41,11.32L16.41,11.32z"/>
		<path fill="#BF5700" d="M15.538,9.24v0.975c0.037-0.006,0.074-0.012,0.111-0.018c1.288-0.188,2.466-0.361,3.462-0.295l0.034-0.957
			C18.043,8.877,16.812,9.053,15.538,9.24L15.538,9.24z"/>
		<path fill="#BF5700" d="M14.815,9.344c-0.366,0.053-0.735,0.102-1.107,0.145l-0.035,0.973c0.386-0.041,0.767-0.092,1.143-0.144
			V9.344L14.815,9.344z"/>
		<path fill="#BF5700" d="M25.049,6.854c-0.834-0.103-1.637-0.164-2.376-0.108l0.034,0.96c0.697-0.057,1.486,0.01,2.342,0.119V6.854
			L25.049,6.854z"/>
		<path fill="#BF5700" d="M28.11,7.273c-0.581-0.066-1.156-0.15-1.723-0.233c-0.207-0.03-0.413-0.061-0.616-0.089v0.973
			c0.156,0.022,0.316,0.045,0.477,0.069c0.622,0.092,1.254,0.185,1.897,0.255L28.11,7.273L28.11,7.273z"/>
		<path fill="#BF5700" d="M24.85,9.035c-0.732-0.083-1.439-0.131-2.098-0.09l0.034,0.957c0.623-0.041,1.315,0.01,2.063,0.102V9.035
			L24.85,9.035z"/>
		<path fill="#BF5700" d="M28.189,9.488c-0.607-0.068-1.21-0.156-1.802-0.244c-0.274-0.039-0.546-0.079-0.815-0.117V10.1
			c0.222,0.031,0.447,0.064,0.676,0.098c0.647,0.096,1.307,0.191,1.977,0.264L28.189,9.488L28.189,9.488z"/>
		<path fill="#BF5700" d="M26.295,12.409c0.657,0.097,1.327,0.193,2.009,0.265l-0.034-0.973c-0.636-0.069-1.264-0.161-1.882-0.252
			c-0.03-0.005-0.062-0.009-0.093-0.014V12.409L26.295,12.409z"/>
		<path fill="#BF5700" d="M25.572,11.332c-0.963-0.133-1.89-0.23-2.742-0.187l0.035,0.959c0.801-0.044,1.715,0.061,2.707,0.201
			V11.332L25.572,11.332z"/>
		<path fill="#BF5700" d="M19.695,26.883l1.254-3.135l1.254,3.135l3.37,0.225l-2.595,2.162l0.828,3.272l-2.857-1.801l-2.857,1.801
			l0.83-3.272l-2.596-2.162L19.695,26.883L19.695,26.883z M12.061,25.771L12.061,25.771l5.445,3.96l-2.098,6.451
			c0.002,0.012,0.008,0.024,0.018,0.032s0.021,0.008,0.033,0.008l5.49-3.992l5.488,3.989c0.012,0.003,0.024,0,0.033-0.005
			c0.018-0.015,0.021-0.038,0.012-0.059l-2.088-6.427l5.443-3.956V25.77c0.025-0.009,0.041-0.034,0.033-0.06
			c-0.008-0.023-0.035-0.036-0.062-0.028V25.68h-6.73l-2.08-6.402h-0.003c0-0.027-0.021-0.05-0.046-0.05s-0.046,0.022-0.046,0.05
			H20.9l-2.078,6.402H12.09l-0.002,0.004c-0.025-0.009-0.053,0.004-0.061,0.028C12.02,25.735,12.033,25.762,12.061,25.771
			L12.061,25.771z"/>
		<path fill="#BF5700" d="M34.465,33.862c-0.49,0.542-1.128,0.918-1.832,1.088c0.1-0.721,0.41-1.395,0.9-1.935
			c0.495-0.545,1.133-0.923,1.834-1.09C35.268,32.646,34.957,33.32,34.465,33.862L34.465,33.862z M31.83,29.627
			c-0.094-0.729,0.033-1.459,0.359-2.107c0.482,0.543,0.791,1.215,0.887,1.943c0.097,0.725-0.03,1.455-0.357,2.103
			C32.236,31.024,31.926,30.351,31.83,29.627L31.83,29.627z M33.289,24.115c-0.137-0.723-0.054-1.459,0.232-2.125
			c0.513,0.512,0.862,1.166,1,1.887c0.141,0.719,0.059,1.455-0.23,2.123C33.777,25.486,33.428,24.833,33.289,24.115L33.289,24.115z
			 M36.768,25.724c0.051,0.726-0.115,1.448-0.484,2.081c-0.367,0.633-0.912,1.133-1.567,1.445c-0.051-0.727,0.114-1.449,0.482-2.082
			C35.569,26.533,36.115,26.035,36.768,25.724L36.768,25.724z M31.434,39.412c-0.592,0.43-1.287,0.664-2.017,0.688
			c0.246-0.688,0.688-1.281,1.282-1.709c0.594-0.432,1.291-0.666,2.02-0.686C32.471,38.389,32.027,38.982,31.434,39.412
			L31.434,39.412z M29.73,34.725c0.061-0.733,0.334-1.42,0.787-1.986c0.359,0.628,0.523,1.351,0.467,2.082
			c-0.057,0.73-0.33,1.421-0.785,1.986C29.84,36.176,29.674,35.455,29.73,34.725L29.73,34.725z M27.83,39.633
			c-0.205,0.701-0.616,1.318-1.178,1.779c-0.223-0.689-0.234-1.43-0.028-2.133c0.209-0.705,0.621-1.322,1.181-1.78
			C28.026,38.186,28.037,38.928,27.83,39.633L27.83,39.633z M28.932,42.811c-0.383,0.618-0.939,1.109-1.61,1.406
			c-0.465,0.208-0.958,0.313-1.466,0.313l0,0c-0.219,0-0.436-0.019-0.648-0.059c0.383-0.619,0.938-1.106,1.607-1.405
			S28.221,42.682,28.932,42.811L28.932,42.811z M22.643,43.096c0.352-0.648,0.881-1.168,1.523-1.5
			c0.074,0.719-0.066,1.445-0.416,2.093c-0.345,0.645-0.874,1.164-1.52,1.5C22.156,44.467,22.297,43.739,22.643,43.096
			L22.643,43.096z M14.506,44.217c-0.669-0.297-1.227-0.788-1.609-1.406c0.711-0.129,1.447-0.043,2.118,0.256
			c0.668,0.299,1.225,0.786,1.607,1.405C15.91,44.603,15.173,44.515,14.506,44.217L14.506,44.217z M13.998,39.631
			c-0.207-0.703-0.195-1.445,0.026-2.132c0.559,0.458,0.971,1.073,1.18,1.778c0.206,0.705,0.194,1.445-0.028,2.135
			C14.614,40.951,14.203,40.334,13.998,39.631L13.998,39.631z M17.662,41.596c0.643,0.332,1.172,0.852,1.521,1.496
			c0.348,0.647,0.488,1.375,0.414,2.097c-0.645-0.336-1.174-0.855-1.52-1.5C17.729,43.041,17.588,42.314,17.662,41.596
			L17.662,41.596z M10.395,39.412c-0.594-0.43-1.037-1.023-1.284-1.707c0.729,0.02,1.425,0.254,2.019,0.686
			c0.594,0.428,1.037,1.021,1.283,1.709C11.682,40.076,10.986,39.842,10.395,39.412L10.395,39.412z M11.311,32.738
			c0.453,0.566,0.727,1.253,0.787,1.985c0.057,0.731-0.109,1.452-0.469,2.083c-0.455-0.565-0.729-1.256-0.785-1.987
			C10.787,34.089,10.951,33.366,11.311,32.738L11.311,32.738z M7.363,33.862c-0.49-0.542-0.803-1.217-0.902-1.937
			c0.702,0.167,1.34,0.545,1.833,1.09c0.491,0.54,0.803,1.214,0.902,1.935C8.491,34.78,7.854,34.404,7.363,33.862L7.363,33.862z
			 M7.113,29.25c-0.654-0.312-1.201-0.812-1.568-1.445c-0.369-0.633-0.535-1.355-0.484-2.081c0.652,0.312,1.199,0.81,1.57,1.444
			C6.998,27.801,7.164,28.523,7.113,29.25L7.113,29.25z M7.306,23.875c0.139-0.721,0.489-1.373,1.001-1.885
			c0.287,0.666,0.369,1.402,0.232,2.123C8.4,24.833,8.051,25.486,7.537,26C7.248,25.332,7.166,24.596,7.306,23.875L7.306,23.875z
			 M8.752,29.461c0.096-0.727,0.405-1.398,0.887-1.941c0.326,0.648,0.453,1.379,0.359,2.105c-0.096,0.726-0.405,1.399-0.888,1.94
			C8.782,30.918,8.656,30.188,8.752,29.461L8.752,29.461z M34.467,30.374c1.123-0.338,2.064-1.077,2.65-2.085
			c0.586-1.006,0.768-2.191,0.51-3.335l-0.113-0.503l-0.494,0.147c-0.568,0.169-1.092,0.443-1.545,0.804
			c0.105-0.56,0.104-1.139-0.006-1.707c-0.221-1.148-0.863-2.16-1.81-2.85l-0.417-0.305l-0.274,0.438
			c-0.621,0.988-0.843,2.168-0.625,3.317c0.22,1.14,0.858,2.146,1.796,2.837c-0.174,0.393-0.292,0.805-0.35,1.227
			c-0.278-0.762-0.753-1.445-1.393-1.973l-0.398-0.33l-0.301,0.42c-0.678,0.949-0.971,2.113-0.822,3.273
			c0.152,1.155,0.732,2.206,1.637,2.953l0.021,0.015c-0.266,0.36-0.475,0.754-0.625,1.172c-0.113-0.804-0.438-1.569-0.955-2.219
			l-0.32-0.405l-0.381,0.351c-0.861,0.789-1.387,1.865-1.48,3.033c-0.092,1.161,0.262,2.306,0.99,3.224l0.019,0.023
			c-0.335,0.295-0.62,0.639-0.854,1.016c0.055-0.812-0.103-1.629-0.475-2.371l-0.231-0.461l-0.444,0.265
			c-1.006,0.595-1.743,1.54-2.075,2.661c-0.328,1.121-0.221,2.312,0.303,3.361l0.014,0.025c-0.389,0.221-0.738,0.496-1.045,0.818
			c0.221-0.783,0.234-1.615,0.023-2.416l-0.131-0.5l-0.488,0.164c-1.106,0.375-2.022,1.148-2.581,2.178
			c-0.534,0.993-0.68,2.143-0.419,3.239c-0.147,0.102-0.302,0.207-0.463,0.316c-0.16-0.109-0.315-0.215-0.463-0.316
			c0.261-1.097,0.116-2.246-0.42-3.241c-0.557-1.027-1.473-1.801-2.58-2.176l-0.488-0.164l-0.131,0.5
			c-0.211,0.801-0.197,1.633,0.023,2.416c-0.306-0.322-0.655-0.598-1.044-0.818l0.013-0.025c0.524-1.049,0.632-2.24,0.304-3.361
			c-0.333-1.121-1.07-2.066-2.076-2.661l-0.443-0.265l-0.231,0.461c-0.373,0.742-0.529,1.559-0.475,2.371
			c-0.234-0.379-0.52-0.721-0.854-1.016l0.018-0.023c0.73-0.918,1.082-2.062,0.99-3.227c-0.094-1.165-0.619-2.241-1.48-3.03
			l-0.381-0.351l-0.32,0.405c-0.518,0.649-0.841,1.415-0.955,2.219c-0.149-0.418-0.358-0.812-0.624-1.172l0.021-0.015
			c0.903-0.747,1.484-1.798,1.636-2.953c0.149-1.16-0.143-2.324-0.822-3.273l-0.301-0.42l-0.397,0.33
			c-0.641,0.527-1.115,1.211-1.393,1.975c-0.058-0.424-0.175-0.836-0.351-1.229c0.938-0.691,1.576-1.697,1.796-2.838
			c0.218-1.15-0.004-2.328-0.625-3.316l-0.274-0.438l-0.417,0.305c-0.946,0.689-1.589,1.701-1.81,2.848
			c-0.109,0.57-0.111,1.148-0.006,1.709c-0.453-0.36-0.977-0.635-1.544-0.804l-0.494-0.147l-0.113,0.503
			c-0.258,1.144-0.077,2.329,0.509,3.335c0.586,1.008,1.527,1.747,2.65,2.085l0.436,0.13c0.045,0.366,0.137,0.727,0.269,1.074
			c-0.622-0.398-1.333-0.641-2.083-0.701l-0.514-0.042l-0.008,0.517c-0.016,1.172,0.406,2.292,1.188,3.155
			c0.781,0.865,1.855,1.395,3.023,1.492l0.453,0.038c0.119,0.351,0.283,0.684,0.484,0.993c-0.508-0.19-1.045-0.29-1.598-0.29
			c-0.195,0-0.392,0.013-0.585,0.035l-0.512,0.066l0.1,0.504c0.228,1.152,0.871,2.162,1.814,2.848
			c0.784,0.57,1.716,0.871,2.69,0.871c0.191,0,0.385-0.012,0.574-0.035l0.451-0.059c0.191,0.318,0.419,0.609,0.682,0.873
			c-0.731-0.109-1.482-0.045-2.189,0.201l-0.488,0.17l0.203,0.475c0.459,1.077,1.299,1.934,2.361,2.407
			c0.591,0.264,1.216,0.396,1.859,0.396c0.514,0,1.021-0.086,1.51-0.254l0.359-0.125c0.6,0.51,1.277,1.018,2.209,1.656
			c-0.426,0.279-0.895,0.586-1.42,0.922l0.905,0.562c0.512-0.33,0.965-0.627,1.378-0.902c0.413,0.275,0.866,0.572,1.378,0.902
			l0.905-0.562c-0.524-0.336-0.994-0.643-1.418-0.922c0.93-0.639,1.607-1.146,2.207-1.656l0.361,0.125
			c0.488,0.168,0.994,0.254,1.508,0.254l0,0c0.645,0,1.27-0.133,1.859-0.395c1.064-0.476,1.902-1.332,2.361-2.409l0.203-0.475
			l-0.488-0.17c-0.707-0.246-1.458-0.311-2.188-0.199c0.262-0.264,0.49-0.557,0.681-0.875l0.451,0.059
			c0.19,0.023,0.383,0.035,0.574,0.035c0.002,0,0.002,0,0.002,0c0.973,0,1.904-0.301,2.689-0.871
			c0.942-0.686,1.587-1.695,1.813-2.848l0.1-0.504l-0.512-0.066c-0.193-0.022-0.391-0.035-0.585-0.035c-0.552,0-1.09,0.1-1.598,0.29
			c0.201-0.31,0.365-0.643,0.486-0.993l0.451-0.038c1.169-0.098,2.242-0.627,3.022-1.492c0.782-0.863,1.204-1.983,1.188-3.155
			l-0.008-0.517l-0.514,0.042c-0.749,0.061-1.461,0.303-2.083,0.701c0.133-0.348,0.224-0.708,0.27-1.074L34.467,30.374
			L34.467,30.374z"/>
		<path fill="#BF5700" d="M34.591,40.555c-0.981,1.436-2.104,2.768-3.458,4.063c-4.178,3.837-8.867,5.956-10.188,6.507
			c-1.321-0.551-6.011-2.67-10.188-6.507c-1.354-1.296-2.477-2.628-3.458-4.063c-4.744-6.946-5.366-15.002-5.37-21.261l0.005-0.001
			l19.017-1.057l19.013,1.056C39.957,25.552,39.335,33.608,34.591,40.555L34.591,40.555z M2.941,3.129
			c3.535-0.392,11.483-1.184,18.008-1.184c6.523,0,14.471,0.792,18.007,1.184l0.989,13.93H20.949H1.952L2.941,3.129L2.941,3.129z
			 M41.891,1.519l-0.844-0.106C40.935,1.398,29.703,0.001,20.955,0c-0.002,0-0.004,0-0.006,0s-0.005,0-0.007,0
			C12.195,0.001,0.965,1.398,0.852,1.412L0.008,1.519v15.54H0v2.169c0,6.546,0.648,15.008,5.707,22.415
			c1.043,1.525,2.228,2.933,3.646,4.302l-0.001,0.002c0.01,0.008,0.019,0.016,0.028,0.023c2.744,2.641,6.371,5.132,11.559,8.022V54
			c0.002-0.004,0.003-0.004,0.005-0.004s0.003,0,0.005,0.004v-0.008c5.188-2.891,8.814-5.382,11.559-8.022
			c0.01-0.008,0.019-0.016,0.027-0.023v-0.002c1.419-1.369,2.604-2.776,3.646-4.302c5.059-7.407,5.707-15.869,5.707-22.415v-0.309
			l0.002-0.001V1.519L41.891,1.519z"/>
	</g>
	<g>
		<path fill="#BF5700" d="M71.94,17.074l-1.88,0.06l-0.1-0.7l0.98-0.2v-5.721c0-1.04-0.48-1.5-1.28-1.5c-0.6,0-1.38,0.44-2.12,0.9
			l-0.601,0.38v5.941l1.101,0.2l-0.1,0.7l-1.9-0.06l-2.101,0.06l-0.1-0.7l1.2-0.2V3.991l-0.72,0.12l-4.061-0.06v12.123l2.3,0.26
			l-0.1,0.7l-3.24-0.06l-3.361,0.06l-0.1-0.7l2.4-0.26V4.051l-3,0.06l-0.92,2.5h-0.78V3.071l5.741,0.04l4.921-0.04l2.141-0.24h0.68
			v6.481l2.921-1.9c2.561,0,2.98,0.96,2.98,3.501v5.321l1.5,0.2l-0.1,0.7L71.94,17.074z"/>
		<path fill="#BF5700" d="M77.136,12.013c0,2.28,1.22,3.901,3.321,3.901c0.8,0,1.76-0.38,2.5-0.84l0.32,0.76
			c-0.96,0.66-2.22,1.22-3.5,1.581c-2.42,0-4.601-1.721-4.601-4.861c0-2.96,1.78-4.541,4.521-5.141c2.641,0,3.541,1.661,3.541,3.761
			v0.84H77.136z M81.157,11.013c0-1.541-0.3-2.601-1.841-2.601c-1.22,0-2,1.14-2.16,2.8L81.157,11.013z"/>
		<path fill="#BF5700" d="M97.058,3.792l0.1-0.7l2.561,0.06l2.34-0.06l0.1,0.7l-1.701,0.26v8.162c0,2.601-1.06,4.341-5.041,5.261
			c-3.94,0-5.341-2.12-5.341-5.301V4.051l-1.8-0.26l0.1-0.7l2.761,0.06l2.741-0.06l0.1,0.7l-1.701,0.26v8.422
			c0,2.48,1.061,3.901,3.341,3.901c2.081,0,3.241-1.4,3.241-3.961V4.051L97.058,3.792z"/>
		<path fill="#BF5700" d="M104.856,17.074l-2.3,0.06l-0.1-0.7l1.4-0.2V8.933l-1.4,0.12l-0.1-0.7l2.4-0.62l0.86-0.06l0.1,1.68
			l2.96-1.94c2.561,0,2.981,0.86,2.981,3.261v5.561l1.52,0.2l-0.1,0.7l-2.3-0.06l-1.92,0.06l-0.1-0.7l1-0.2v-5.721
			c0-1.04-0.46-1.5-1.32-1.5c-0.7,0-1.4,0.44-2.081,0.9l-0.6,0.4v5.921l1.1,0.2l-0.1,0.7L104.856,17.074z"/>
		<path fill="#BF5700" d="M116.316,17.074l-2.3,0.06l-0.1-0.7l1.4-0.2V8.933l-1.4,0.12l-0.1-0.7l2.4-0.62l1-0.08v8.582l1.5,0.2
			l-0.1,0.7L116.316,17.074z M115.316,3.312l1.44-0.1l0.561,0.1l0.1,1.12l-0.22,0.96l-1.42,0.12l-0.54-0.12l-0.12-1.12
			L115.316,3.312z"/>
		<path fill="#BF5700" d="M124.337,15.834l2.42-7.242l-0.92-0.2l0.1-0.7l1.76,0.06l1.66-0.06l0.1,0.7l-1.28,0.2l-3.281,8.222
			l-1.46,0.601l-3.48-8.822l-1.24-0.2l0.1-0.7l2.3,0.06l2.101-0.06l0.1,0.7l-1.32,0.2l2.18,5.861L124.337,15.834z"/>
		<path fill="#BF5700" d="M131.417,12.013c0,2.28,1.22,3.901,3.321,3.901c0.8,0,1.76-0.38,2.5-0.84l0.32,0.76
			c-0.96,0.66-2.22,1.22-3.5,1.581c-2.42,0-4.601-1.721-4.601-4.861c0-2.96,1.78-4.541,4.521-5.141c2.641,0,3.541,1.661,3.541,3.761
			v0.84H131.417z M135.438,11.013c0-1.541-0.3-2.601-1.841-2.601c-1.22,0-2,1.14-2.16,2.8L135.438,11.013z"/>
		<path fill="#BF5700" d="M141.997,10.313l2.28-2.801h1.601v2h-1.48c-0.48,0.1-1.36,0.76-1.9,1.42l-0.4,0.48v4.761l2.101,0.2
			l-0.1,0.76l-2.901-0.06l-2.24,0.06l-0.1-0.7l1.4-0.2V8.933l-1.4,0.12l-0.1-0.7l2.4-0.62l0.8-0.06L141.997,10.313z"/>
		<path fill="#BF5700" d="M152.177,8.833c-0.2-0.12-0.8-0.44-1.521-0.44c-0.78,0-1.521,0.42-1.521,1.18c0,0.64,0.5,1.04,1.4,1.5
			l1.541,0.78c1.34,0.68,1.88,1.44,1.88,2.581c0,1.8-1.46,2.48-3.761,2.981c-1.22,0-2.521-0.601-3.041-0.9l-0.38-2.261h1.28
			l0.68,1.661c0.42,0.28,1,0.5,1.64,0.5c1.061,0,1.601-0.68,1.601-1.521c0-0.78-0.42-1.12-1.46-1.66l-1.58-0.82
			c-0.86-0.44-1.681-1.2-1.681-2.32c0-1.4,1.3-2.181,3.621-2.681c1.08,0,2.24,0.48,2.82,0.9v2h-1.06L152.177,8.833z"/>
		<path fill="#BF5700" d="M157.696,17.074l-2.3,0.06l-0.1-0.7l1.4-0.2V8.933l-1.4,0.12l-0.1-0.7l2.4-0.62l1-0.08v8.582l1.5,0.2
			l-0.1,0.7L157.696,17.074z M156.696,3.312l1.44-0.1l0.561,0.1l0.1,1.12l-0.22,0.96l-1.42,0.12l-0.54-0.12l-0.12-1.12
			L156.696,3.312z"/>
		<path fill="#BF5700" d="M167.617,21.815v-2h1.721l1.98-3.021l-0.8,0.24l-3.361-8.422h-3.021v6.102c0,0.58,0.22,1.2,1.06,1.2
			c0.58,0,1.2-0.28,1.76-0.56l0.34,0.68l-2.521,1.38c-2.241,0-2.541-0.8-2.541-2.601V8.853h-1.94v-0.34l0.7-0.7h1.3v-1.3l1.3-1.3
			h0.52v2.5h6.301l0.1,0.68l-1.32,0.2l2.22,5.861l0.16,1.38l2.48-7.242l-0.92-0.2l0.1-0.7l1.76,0.06l1.66-0.06l0.1,0.7l-1.28,0.2
			l-3.241,8.182l-2.24,5.041H167.617z"/>
		<path fill="#BF5700" d="M189.937,12.213c0,2.98-1.82,4.701-4.921,5.201c-2.661,0-4.461-2.061-4.461-4.781
			c0-3,1.82-4.701,4.921-5.221C188.137,7.412,189.937,9.493,189.937,12.213z M185.516,16.434c1.601,0,2.42-1.64,2.42-3.801
			c0-2.541-1.22-4.241-2.96-4.241c-1.62,0-2.42,1.64-2.42,3.821C182.556,14.494,183.736,16.434,185.516,16.434z"/>
		<path fill="#BF5700" d="M194.436,7.912h2.501v0.94h-2.501v7.381l2.301,0.14l-0.1,0.76l-3.101-0.06l-2.3,0.06l-0.1-0.7l1.4-0.2
			V8.853h-1.76v-0.34l0.6-0.7h1.16v-0.2c0-1.2,0.38-1.98,1.101-2.801l1.68-1.9h2.521v1.601h-2.601l-0.38,0.54
			c-0.28,0.38-0.42,0.96-0.42,2.26V7.912z"/>
		<path fill="#BF5700" d="M212.236,17.134l-3.24-0.06l-3.361,0.06l-0.1-0.7l2.4-0.26V4.051l-3,0.04l-0.92,2.541h-0.78V3.091
			l5.741,0.06l5.761-0.06v3.541h-0.78l-0.92-2.541l-3-0.04v12.123l2.3,0.26L212.236,17.134z"/>
		<path fill="#BF5700" d="M215.795,12.013c0,2.28,1.22,3.901,3.321,3.901c0.8,0,1.76-0.38,2.5-0.84l0.32,0.76
			c-0.96,0.66-2.22,1.22-3.5,1.581c-2.42,0-4.601-1.721-4.601-4.861c0-2.96,1.78-4.541,4.521-5.141c2.641,0,3.541,1.661,3.541,3.761
			v0.84H215.795z M219.816,11.013c0-1.541-0.3-2.601-1.841-2.601c-1.22,0-2,1.14-2.16,2.8L219.816,11.013z"/>
		<path fill="#BF5700" d="M226.456,16.434l-0.1,0.7l-1.561-0.06l-2.06,0.06l-0.1-0.7l1.4-0.2l2.96-3.641l-2.901-3.981l-1.24-0.2
			l0.1-0.72l2.301,0.06l1.9-0.06l0.1,0.72l-0.78,0.2l1.48,2.221l0.16,0.52l1.9-2.741l-0.98-0.2l0.1-0.72l1.56,0.06l2.061-0.06
			l0.1,0.72l-1.44,0.2l-2.641,3.201l3.141,4.421l1.24,0.2l-0.1,0.7l-2.3-0.06l-1.9,0.06l-0.1-0.7l0.82-0.2l-1.78-2.581l-0.16-0.46
			l-2.121,3.041L226.456,16.434z"/>
		<path fill="#BF5700" d="M237.795,7.412c2.521,0,3.161,0.64,3.161,3.181v3.921c0,0.86,0.14,1.18,0.34,1.5h1l0.08,0.7l-2.581,0.5
			l-0.62-1.541l-2.381,1.741c-1.72,0-2.94-0.96-2.94-2.561c0-0.72,0.26-1.241,0.7-1.841l4.501-1.5v-1c0-1.2-0.1-1.92-1.18-1.92
			c-0.54,0-1.2,0.18-1.641,0.36l-0.34,1.58h-1.72v-1.52L237.795,7.412z M239.056,12.313l-2.901,1.2c-0.3,0.3-0.4,0.7-0.4,1.12
			c0,1.02,0.58,1.38,1.16,1.38c0.56,0,1.041-0.34,1.3-0.52l0.84-0.581V12.313z"/>
		<path fill="#BF5700" d="M248.576,8.833c-0.2-0.12-0.8-0.44-1.521-0.44c-0.78,0-1.521,0.42-1.521,1.18c0,0.64,0.5,1.04,1.4,1.5
			l1.541,0.78c1.34,0.68,1.88,1.44,1.88,2.581c0,1.8-1.46,2.48-3.761,2.981c-1.22,0-2.521-0.601-3.041-0.9l-0.38-2.261h1.28
			l0.68,1.661c0.42,0.28,1,0.5,1.64,0.5c1.061,0,1.601-0.68,1.601-1.521c0-0.78-0.42-1.12-1.46-1.66l-1.58-0.82
			c-0.86-0.44-1.681-1.2-1.681-2.32c0-1.4,1.3-2.181,3.621-2.681c1.08,0,2.24,0.48,2.82,0.9v2h-1.06L248.576,8.833z"/>
		<path fill="#BF5700" d="M260.435,7.412c2.521,0,3.161,0.64,3.161,3.181v3.921c0,0.86,0.14,1.18,0.34,1.5h1l0.08,0.7l-2.581,0.5
			l-0.62-1.541l-2.381,1.741c-1.72,0-2.94-0.96-2.94-2.561c0-0.72,0.26-1.241,0.7-1.841l4.501-1.5v-1c0-1.2-0.1-1.92-1.18-1.92
			c-0.54,0-1.2,0.18-1.641,0.36l-0.34,1.58h-1.72v-1.52L260.435,7.412z M261.695,12.313l-2.901,1.2c-0.3,0.3-0.4,0.7-0.4,1.12
			c0,1.02,0.58,1.38,1.16,1.38c0.56,0,1.041-0.34,1.3-0.52l0.84-0.581V12.313z"/>
		<path fill="#BF5700" d="M264.915,8.853v-0.34l0.7-0.7h1.3v-1.3l1.3-1.3h0.52v2.74h3.021v0.9h-3v5.861c0,0.58,0.22,1.2,1.06,1.2
			c0.58,0,1.021-0.2,1.581-0.48l0.34,0.68l-2.34,1.3c-2.241,0-2.541-0.8-2.541-2.601V8.853H264.915z"/>
		<path fill="#BF5700" d="M280.195,12.433l-1.3,3.741l1.74,0.26l-0.1,0.7l-2.4-0.06l-2.14,0.06l-0.1-0.7l1.56-0.22l4.961-12.962
			l1.201-0.34l5.221,13.303l1.561,0.22l-0.1,0.7l-2.761-0.06l-2.64,0.06l-0.1-0.7l1.7-0.26l-1.36-3.741H280.195z M282.855,6.212
			l-0.14-1.08l-2.201,6.361h4.261L282.855,6.212z"/>
		<path fill="#BF5700" d="M298.896,14.514c0,0.86,0.1,1.18,0.24,1.5h1l0.08,0.7l-2.581,0.5l-0.56-1.621l-2.9,1.821
			c-2.641,0-3.081-0.94-3.081-3.261V8.933l-1.4,0.1l-0.1-0.78l2.4-0.52l1-0.08v6.661c0,1.041,0.44,1.5,1.42,1.5
			c0.62,0,1.42-0.5,2.181-1l0.4-0.26V8.933l-1.2,0.1l-0.1-0.78l2.201-0.52l1-0.08V14.514z"/>
		<path fill="#BF5700" d="M306.515,8.833c-0.2-0.12-0.8-0.44-1.521-0.44c-0.78,0-1.521,0.42-1.521,1.18c0,0.64,0.5,1.04,1.4,1.5
			l1.541,0.78c1.34,0.68,1.88,1.44,1.88,2.581c0,1.8-1.46,2.48-3.761,2.981c-1.22,0-2.521-0.601-3.041-0.9l-0.38-2.261h1.28
			l0.68,1.661c0.42,0.28,1,0.5,1.64,0.5c1.061,0,1.601-0.68,1.601-1.521c0-0.78-0.42-1.12-1.46-1.66l-1.58-0.82
			c-0.86-0.44-1.681-1.2-1.681-2.32c0-1.4,1.3-2.181,3.621-2.681c1.08,0,2.24,0.48,2.82,0.9v2h-1.06L306.515,8.833z"/>
		<path fill="#BF5700" d="M308.934,8.853v-0.34l0.7-0.7h1.3v-1.3l1.3-1.3h0.52v2.74h3.021v0.9h-3v5.861c0,0.58,0.22,1.2,1.06,1.2
			c0.58,0,1.021-0.2,1.581-0.48l0.34,0.68l-2.34,1.3c-2.241,0-2.541-0.8-2.541-2.601V8.853H308.934z"/>
		<path fill="#BF5700" d="M319.314,17.074l-2.3,0.06l-0.1-0.7l1.4-0.2V8.933l-1.4,0.12l-0.1-0.7l2.4-0.62l1-0.08v8.582l1.5,0.2
			l-0.1,0.7L319.314,17.074z M318.314,3.312l1.44-0.1l0.561,0.1l0.1,1.12l-0.22,0.96l-1.42,0.12l-0.54-0.12l-0.12-1.12
			L318.314,3.312z"/>
		<path fill="#BF5700" d="M325.014,17.074l-2.3,0.06l-0.1-0.7l1.4-0.2V8.933l-1.4,0.12l-0.1-0.7l2.4-0.62l0.86-0.06l0.1,1.68
			l2.96-1.94c2.561,0,2.981,0.86,2.981,3.261v5.561l1.52,0.2l-0.1,0.7l-2.3-0.06l-1.92,0.06l-0.1-0.7l1-0.2v-5.721
			c0-1.04-0.46-1.5-1.32-1.5c-0.7,0-1.4,0.44-2.081,0.9l-0.6,0.4v5.921l1.1,0.2l-0.1,0.7L325.014,17.074z"/>
	</g>
</g>
</svg>
